<?xml version="1.0" encoding="UTF-8" standalone="no"?>
<!-- Created with Inkscape (http://www.inkscape.org/) -->

<svg
   xmlns:dc="http://purl.org/dc/elements/1.1/"
   xmlns:cc="http://creativecommons.org/ns#"
   xmlns:rdf="http://www.w3.org/1999/02/22-rdf-syntax-ns#"
   xmlns:svg="http://www.w3.org/2000/svg"
   xmlns="http://www.w3.org/2000/svg"
   xmlns:sodipodi="http://sodipodi.sourceforge.net/DTD/sodipodi-0.dtd"
   xmlns:inkscape="http://www.inkscape.org/namespaces/inkscape"
   width="22.754166mm"
   height="22.754166mm"
   viewBox="0 0 22.754166 22.754166"
   version="1.1"
   id="svg894"
   inkscape:version="0.92.1 unknown"
   sodipodi:docname="mirror-logo-86.svg">
  <defs
     id="defs888" />
  <sodipodi:namedview
     id="base"
     pagecolor="#ffffff"
     bordercolor="#666666"
     borderopacity="1.0"
     inkscape:pageopacity="0.0"
     inkscape:pageshadow="2"
     inkscape:zoom="5.6"
     inkscape:cx="68.657235"
     inkscape:cy="48.017987"
     inkscape:document-units="mm"
     inkscape:current-layer="layer1"
     showgrid="false"
     fit-margin-top="0"
     fit-margin-left="0"
     fit-margin-right="0"
     fit-margin-bottom="0"
     inkscape:window-width="1920"
     inkscape:window-height="1031"
     inkscape:window-x="1920"
     inkscape:window-y="0"
     inkscape:window-maximized="1" />
  <metadata
     id="metadata891">
    <rdf:RDF>
      <cc:Work
         rdf:about="">
        <dc:format>image/svg+xml</dc:format>
        <dc:type
           rdf:resource="http://purl.org/dc/dcmitype/StillImage" />
        <dc:title></dc:title>
      </cc:Work>
    </rdf:RDF>
  </metadata>
  <g
     inkscape:label="Capa 1"
     inkscape:groupmode="layer"
     id="layer1"
     transform="translate(-138.30149,-61.105062)">
    <g
       id="g873"
       transform="matrix(0.26805461,0,0,0.26805461,21.463678,-223.13857)">
      <circle
         inkscape:export-ydpi="90"
         inkscape:export-xdpi="90"
         r="42.443153"
         cy="1102.8376"
         cx="478.31631"
         id="path4958-67"
         style="color:#000000;clip-rule:nonzero;display:inline;overflow:visible;visibility:visible;opacity:1;isolation:auto;mix-blend-mode:normal;color-interpolation:sRGB;color-interpolation-filters:linearRGB;solid-color:#000000;solid-opacity:1;fill:#455a64;fill-opacity:1;fill-rule:nonzero;stroke:none;stroke-width:1.32614326;stroke-linecap:butt;stroke-linejoin:round;stroke-miterlimit:4;stroke-dasharray:5.30457288, 2.65228644;stroke-dashoffset:0;stroke-opacity:1;color-rendering:auto;image-rendering:auto;shape-rendering:auto;text-rendering:auto;enable-background:accumulate" />
      <path
         sodipodi:nodetypes="ccccccscccc"
         inkscape:connector-curvature="0"
         id="path5020-5"
         d="m 478.31634,1061.714 c -10.54186,0.01 -20.67848,4.0621 -28.31652,11.3279 12.53575,3.7077 28.71198,10.963 37.74587,17.9042 8.51356,6.5012 12.87917,16.3324 16.21935,25.8741 -21.96898,10.701 -39.91189,9.4441 -63.21585,2.6225 6.56944,14.885 21.29694,24.4973 37.56715,24.5194 22.71266,3e-4 41.12498,-18.4121 41.12469,-41.1247 -4.2e-4,-22.7122 -18.41254,-41.1237 -41.12469,-41.1234 z m 31.78988,52.5963 c 0.55118,1.5794 -1.955,2.1781 -2.97993,1.2368 -0.39047,-0.9977 2.12029,-1.2779 2.97993,-1.2368 z"
         style="color:#000000;clip-rule:nonzero;display:inline;overflow:visible;visibility:visible;opacity:1;isolation:auto;mix-blend-mode:normal;color-interpolation:sRGB;color-interpolation-filters:linearRGB;solid-color:#000000;solid-opacity:1;fill:#ffffff;fill-opacity:1;fill-rule:nonzero;stroke:none;stroke-width:1.32614326;stroke-linecap:butt;stroke-linejoin:round;stroke-miterlimit:4;stroke-dasharray:5.30457288, 2.65228644;stroke-dashoffset:0;stroke-opacity:1;color-rendering:auto;image-rendering:auto;shape-rendering:auto;text-rendering:auto;enable-background:accumulate" />
      <path
         sodipodi:nodetypes="cccccccccccc"
         inkscape:connector-curvature="0"
         id="path628-5-1-2-84-3-5-35"
         d="m 460.83132,1087.0411 c -1.65877,0.069 -3.26351,0.749 -4.31927,2.1808 -3.27818,3.8483 0.57029,9.3899 5.44883,9.9209 -2.54545,9.2159 4.58398,19.1054 13.68822,22.2638 9.24201,2.4826 19.15294,-0.9049 27.23776,-5.0265 -2.72476,-7.7836 -6.2863,-15.8028 -13.23124,-21.1061 -4.11411,-3.2126 -9.62062,-4.5197 -14.9243,-3.7185 -0.28659,-3.7721 -3.18141,1.6637 -2.98049,-3.0447 -1.86628,1.0552 -3.15809,7.0104 -4.52851,2.3849 -0.82163,-2.2643 -3.23317,-3.6948 -5.6786,-3.8469 -0.23775,-0.015 -0.47542,-0.017 -0.7124,-0.01 z"
         style="fill:#ffffff;fill-opacity:1;stroke-width:0.66307163" />
      <path
         sodipodi:nodetypes="ccc"
         inkscape:connector-curvature="0"
         id="path628-5-1-2-84-3-5-3-6"
         d="m 509.62349,1114.6283 c -0.56332,-0.027 -2.2088,0.1566 -1.95293,0.8104 0.67164,0.6169 2.31412,0.2245 1.95293,-0.8104 z"
         style="fill:#ffffff;fill-opacity:1;stroke-width:0.66307163" />
    </g>
  </g>
</svg>
