<?xml version="1.0" encoding="UTF-8" standalone="no"?>
<!-- Created with Inkscape (http://www.inkscape.org/) -->

<svg
   xmlns:dc="http://purl.org/dc/elements/1.1/"
   xmlns:cc="http://creativecommons.org/ns#"
   xmlns:rdf="http://www.w3.org/1999/02/22-rdf-syntax-ns#"
   xmlns:svg="http://www.w3.org/2000/svg"
   xmlns="http://www.w3.org/2000/svg"
   xmlns:xlink="http://www.w3.org/1999/xlink"
   xmlns:sodipodi="http://sodipodi.sourceforge.net/DTD/sodipodi-0.dtd"
   xmlns:inkscape="http://www.inkscape.org/namespaces/inkscape"
   width="256"
   height="256"
   viewBox="0 0 67.733332 67.733335"
   version="1.1"
   id="svg1737"
   inkscape:version="0.92.3 (2405546, 2018-03-11)"
   sodipodi:docname="lliurex-mirror.svg">
  <defs
     id="defs1731">
    <linearGradient
       inkscape:collect="always"
       id="linearGradient846">
      <stop
         style="stop-color:#ff7373;stop-opacity:1"
         offset="0"
         id="stop842" />
      <stop
         style="stop-color:#ff0404;stop-opacity:1"
         offset="1"
         id="stop844" />
    </linearGradient>
    <linearGradient
       gradientTransform="matrix(0.74931131,0,0,0.74931131,15.982696,954.64341)"
       y2="68.789101"
       x2="203.6655"
       y1="126.3662"
       x1="203.6655"
       gradientUnits="userSpaceOnUse"
       id="XMLID_1543_-2">
      <stop
         id="stop37853"
         style="stop-color:#000000"
         offset="0" />
      <stop
         id="stop37855"
         style="stop-color:#000000;stop-opacity:0.5882"
         offset="1" />
    </linearGradient>
    <linearGradient
       gradientTransform="matrix(0.74931131,0,0,0.74931131,15.982696,954.64341)"
       y2="101.376"
       x2="187.21001"
       y1="232.748"
       x1="187.21001"
       gradientUnits="userSpaceOnUse"
       id="XMLID_1544_-8">
      <stop
         id="stop37859"
         style="stop-color:#000000"
         offset="0" />
      <stop
         id="stop37861"
         style="stop-color:#000000;stop-opacity:0.5882"
         offset="1" />
    </linearGradient>
    <linearGradient
       inkscape:collect="always"
       xlink:href="#linearGradient846"
       id="linearGradient848"
       x1="10.261175"
       y1="234.65799"
       x2="54.474686"
       y2="287.67542"
       gradientUnits="userSpaceOnUse" />
    <linearGradient
       inkscape:collect="always"
       xlink:href="#linearGradient846"
       id="linearGradient876"
       gradientUnits="userSpaceOnUse"
       x1="10.261175"
       y1="234.65799"
       x2="54.474686"
       y2="287.67542" />
    <linearGradient
       inkscape:collect="always"
       xlink:href="#linearGradient846"
       id="linearGradient878"
       gradientUnits="userSpaceOnUse"
       x1="10.261175"
       y1="234.65799"
       x2="54.474686"
       y2="287.67542" />
    <linearGradient
       inkscape:collect="always"
       xlink:href="#linearGradient846"
       id="linearGradient880"
       gradientUnits="userSpaceOnUse"
       x1="10.261175"
       y1="234.65799"
       x2="54.474686"
       y2="287.67542" />
    <filter
       inkscape:collect="always"
       style="color-interpolation-filters:sRGB"
       id="filter964"
       x="-0.0192"
       width="1.0384"
       y="-0.0192"
       height="1.0384">
      <feGaussianBlur
         inkscape:collect="always"
         stdDeviation="1.0241586"
         id="feGaussianBlur966" />
    </filter>
    <linearGradient
       inkscape:collect="always"
       id="linearGradient1004">
      <stop
         style="stop-color:#b8d1d1;stop-opacity:1"
         offset="0"
         id="stop1000" />
      <stop
         style="stop-color:#ffffff;stop-opacity:0.99259257"
         offset="1"
         id="stop1002" />
    </linearGradient>
    <linearGradient
       inkscape:collect="always"
       xlink:href="#linearGradient1004"
       id="linearGradient1055"
       gradientUnits="userSpaceOnUse"
       x1="226.11302"
       y1="170.43645"
       x2="144.92664"
       y2="86.905479" />
  </defs>
  <sodipodi:namedview
     id="base"
     pagecolor="#ffffff"
     bordercolor="#666666"
     borderopacity="1.0"
     inkscape:pageopacity="0.0"
     inkscape:pageshadow="2"
     inkscape:zoom="0.98994949"
     inkscape:cx="401.55524"
     inkscape:cy="228.36215"
     inkscape:document-units="mm"
     inkscape:current-layer="layer1"
     showgrid="false"
     units="px"
     inkscape:window-width="1920"
     inkscape:window-height="1025"
     inkscape:window-x="1920"
     inkscape:window-y="0"
     inkscape:window-maximized="1"
     inkscape:object-paths="true"
     inkscape:snap-intersection-paths="true"
     inkscape:snap-smooth-nodes="true"
     inkscape:snap-midpoints="true"
     inkscape:snap-object-midpoints="true"
     inkscape:snap-center="true"
     inkscape:snap-text-baseline="true" />
  <metadata
     id="metadata1734">
    <rdf:RDF>
      <cc:Work
         rdf:about="">
        <dc:format>image/svg+xml</dc:format>
        <dc:type
           rdf:resource="http://purl.org/dc/dcmitype/StillImage" />
        <dc:title />
      </cc:Work>
    </rdf:RDF>
  </metadata>
  <g
     inkscape:label="Capa 1"
     inkscape:groupmode="layer"
     id="layer1"
     transform="translate(0,-229.26665)">
    <g
       id="g874"
       transform="translate(66.334821,-94.494048)">
      <g
         id="g871"
         style="fill:#000000;fill-opacity:1;stroke:none;stroke-width:0.38214982;stroke-miterlimit:4;stroke-dasharray:none;stroke-opacity:1"
         transform="matrix(1.0467099,0,0,1.0467099,-1.5980938,-10.960851)">
        <path
           sodipodi:nodetypes="ccccccscccsccccccscccccc"
           id="path865"
           d="m 10.261175,234.65799 v 7.40041 c 4.238695,-1.04508 9.298105,1.86613 10.78075,3.80307 0.67893,-1.28471 0.04643,-3.55108 1.511864,-4.23166 0.306302,-0.14172 0.408017,1.19065 0.366336,1.56865 -0.04122,0.37743 -0.180381,1.26444 -0.10176,1.38007 0,0 1.049154,-1.00355 1.404288,-0.92004 0.355102,0.0835 0.57904,0.29497 0.610561,0.66003 0.02638,0.29861 0.157898,1.28884 0.345984,1.7801 3.109891,-0.38494 6.672086,-0.0695 10.440581,1.76009 1.473896,0.74011 2.976623,1.72208 4.457089,3.00016 4.441387,3.83431 8.794933,10.37669 12.353669,21.34115 -15.770176,8.99597 -26.204018,11.18701 -42.169362,7.99273 v 10.70829 H 58.943181 V 267.9198 c -0.174715,1.25034 -1.194484,2.0425 -2.055553,2.38012 -1.079263,0.42303 -3.533161,0.32631 -4.212866,-1.26006 -0.679693,-1.58637 1.531786,-2.68254 2.340481,-3.00017 0.656656,-0.25758 2.370713,-0.93493 3.297025,-0.24001 0.213777,0.16036 0.383348,0.39185 0.488449,0.72004 0.06908,0.21588 0.116022,0.42174 0.142464,0.62004 v -32.48177 z"
           style="fill:#000000;fill-opacity:1;stroke:none;stroke-width:0.38214982;stroke-miterlimit:4;stroke-dasharray:none;stroke-opacity:1"
           inkscape:connector-curvature="0" />
        <path
           sodipodi:nodetypes="ccccccccc"
           inkscape:connector-curvature="0"
           id="path867"
           d="m 38.558057,252.55101 c -3.593389,-2.89467 -8.367609,-4.02887 -12.943042,-3.23807 -0.291218,-3.44825 -2.733026,1.55506 -2.613609,-2.75519 -1.601153,0.98583 -2.647381,6.4499 -3.885356,2.23268 -1.309001,-3.66726 -6.936807,-4.86694 -9.2777572,-1.41467 -2.7894061,3.55673 0.6000432,8.58371 4.8233382,9.01641 -2.094193,8.45999 4.183328,17.43205 12.089716,20.22275 8.017732,2.17087 16.547742,-1.03653 23.489041,-4.89566 -2.445061,-7.09206 -5.617786,-14.39151 -11.682331,-19.16825 z"
           style="fill:#000000;fill-opacity:1;stroke:none;stroke-width:0.38214982;stroke-miterlimit:4;stroke-dasharray:none;stroke-opacity:1" />
        <path
           sodipodi:nodetypes="ccc"
           inkscape:transform-center-y="21.367565"
           inkscape:transform-center-x="-74.669068"
           inkscape:connector-curvature="0"
           id="path869"
           d="m 57.264795,267.36059 c -0.935633,-0.0354 -3.661168,0.32316 -3.22202,1.4665 1.128517,1.06966 3.84444,0.34426 3.22202,-1.4665 z"
           style="fill:#000000;fill-opacity:1;stroke:none;stroke-width:0.38214982;stroke-miterlimit:4;stroke-dasharray:none;stroke-opacity:1" />
      </g>
      <g
         transform="matrix(1.0467099,0,0,1.0467099,-1.5980938,-10.960851)"
         style="fill:url(#linearGradient848);fill-opacity:1"
         id="g2762">
        <path
           inkscape:connector-curvature="0"
           style="fill:url(#linearGradient876);fill-opacity:1;stroke:none;stroke-width:0.64562505"
           d="m 10.261175,234.65799 v 7.40041 c 4.238695,-1.04508 9.298105,1.86613 10.78075,3.80307 0.67893,-1.28471 0.04643,-3.55108 1.511864,-4.23166 0.306302,-0.14172 0.408017,1.19065 0.366336,1.56865 -0.04122,0.37743 -0.180381,1.26444 -0.10176,1.38007 0,0 1.049154,-1.00355 1.404288,-0.92004 0.355102,0.0835 0.57904,0.29497 0.610561,0.66003 0.02638,0.29861 0.157898,1.28884 0.345984,1.7801 3.109891,-0.38494 6.672086,-0.0695 10.440581,1.76009 1.473896,0.74011 2.976623,1.72208 4.457089,3.00016 4.441387,3.83431 8.794933,10.37669 12.353669,21.34115 -15.770176,8.99597 -26.204018,11.18701 -42.169362,7.99273 v 10.70829 H 58.943181 V 267.9198 c -0.174715,1.25034 -1.194484,2.0425 -2.055553,2.38012 -1.079263,0.42303 -3.533161,0.32631 -4.212866,-1.26006 -0.679693,-1.58637 1.531786,-2.68254 2.340481,-3.00017 0.656656,-0.25758 2.370713,-0.93493 3.297025,-0.24001 0.213777,0.16036 0.383348,0.39185 0.488449,0.72004 0.06908,0.21588 0.116022,0.42174 0.142464,0.62004 v -32.48177 z"
           id="rect3012-7-6-7-2"
           sodipodi:nodetypes="ccccccscccsccccccscccccc" />
        <path
           style="fill:url(#linearGradient878);fill-opacity:1;stroke-width:0.64562505"
           d="m 38.558057,252.55101 c -3.593389,-2.89467 -8.367609,-4.02887 -12.943042,-3.23807 -0.291218,-3.44825 -2.733026,1.55506 -2.613609,-2.75519 -1.601153,0.98583 -2.647381,6.4499 -3.885356,2.23268 -1.309001,-3.66726 -6.936807,-4.86694 -9.2777572,-1.41467 -2.7894061,3.55673 0.6000432,8.58371 4.8233382,9.01641 -2.094193,8.45999 4.183328,17.43205 12.089716,20.22275 8.017732,2.17087 16.547742,-1.03653 23.489041,-4.89566 -2.445061,-7.09206 -5.617786,-14.39151 -11.682331,-19.16825 z"
           id="path628-5-1-2-84-5-5"
           inkscape:connector-curvature="0"
           sodipodi:nodetypes="ccccccccc" />
        <path
           style="fill:url(#linearGradient880);fill-opacity:1;stroke-width:0.64562505"
           d="m 57.264795,267.36059 c -0.935633,-0.0354 -3.661168,0.32316 -3.22202,1.4665 1.128517,1.06966 3.84444,0.34426 3.22202,-1.4665 z"
           id="path628-5-8-5-7-7-3-7"
           inkscape:connector-curvature="0"
           inkscape:transform-center-x="-74.669068"
           inkscape:transform-center-y="21.367565"
           sodipodi:nodetypes="ccc" />
      </g>
      <path
         sodipodi:nodetypes="cccccc"
         inkscape:connector-curvature="0"
         id="path1273"
         d="m 53.281468,273.9536 6.816849,9.62823 v 9.94632 H 27.344306 l -6.223083,-9.77165 c 14.952374,0.10235 24.958946,-5.78232 32.160245,-9.8029 z"
         style="opacity:0.306;fill:#000000;stroke:none;stroke-width:0.26458332px;stroke-linecap:butt;stroke-linejoin:miter;stroke-opacity:1" />
      <path
         sodipodi:nodetypes="cccc"
         inkscape:connector-curvature="0"
         id="path1275"
         d="m 53.878333,271.1903 c 1.773328,2.33589 4.032912,4.77224 6.219984,7.43059 v -9.14743 c -0.238777,1.796 -2.968172,4.05357 -6.219984,1.71684 z"
         style="opacity:0.306;fill:#000000;stroke:none;stroke-width:0.26458332px;stroke-linecap:butt;stroke-linejoin:miter;stroke-opacity:1" />
    </g>
    <g
       inkscape:label="Capa 1"
       id="layer1-6"
       transform="matrix(0.41105339,0,0,0.41105339,-131.22127,5.9981264)" />
    <g
       id="g1060"
       transform="translate(-0.03051801,1.3897254)">
      <circle
         transform="matrix(0.45048763,0,0,0.45048763,-152.29111,3.9580404)"
         style="color:#000000;clip-rule:nonzero;display:inline;overflow:visible;visibility:visible;opacity:0.781;isolation:auto;mix-blend-mode:normal;color-interpolation:sRGB;color-interpolation-filters:linearRGB;solid-color:#000000;solid-opacity:1;fill:#000000;fill-opacity:1;fill-rule:nonzero;stroke:none;stroke-width:2;stroke-linecap:butt;stroke-linejoin:round;stroke-miterlimit:4;stroke-dasharray:8, 4;stroke-dashoffset:0;stroke-opacity:1;filter:url(#filter964);color-rendering:auto;image-rendering:auto;shape-rendering:auto;text-rendering:auto;enable-background:accumulate"
         id="path4958-6"
         cx="413.30389"
         cy="572.23669"
         r="64.009911"
         inkscape:export-xdpi="90"
         inkscape:export-ydpi="90" />
      <circle
         style="color:#000000;clip-rule:nonzero;display:inline;overflow:visible;visibility:visible;opacity:1;isolation:auto;mix-blend-mode:normal;color-interpolation:sRGB;color-interpolation-filters:linearRGB;solid-color:#000000;solid-opacity:1;fill:#455a64;fill-opacity:1;fill-rule:nonzero;stroke:none;stroke-width:0.90097529;stroke-linecap:butt;stroke-linejoin:round;stroke-miterlimit:4;stroke-dasharray:3.60390106, 1.80195053;stroke-dashoffset:0;stroke-opacity:1;color-rendering:auto;image-rendering:auto;shape-rendering:auto;text-rendering:auto;enable-background:accumulate"
         id="path4958"
         cx="33.897186"
         cy="261.74359"
         r="28.835674"
         inkscape:export-xdpi="90"
         inkscape:export-ydpi="90" />
      <path
         id="path5020"
         transform="matrix(0.26458333,0,0,0.26458333,0,229.26665)"
         d="m 128.11523,17.150391 c -27.06931,0.01512 -53.098027,10.430895 -72.710933,29.08789 32.189197,9.520555 73.726663,28.150925 96.923823,45.97461 21.86105,16.693569 33.07155,41.938549 41.64844,66.439449 -56.41179,27.47808 -102.486425,24.24895 -162.326169,6.73243 16.868946,38.22156 54.686312,62.90432 96.464839,62.96093 58.3214,7.6e-4 105.60035,-47.27821 105.59961,-105.59961 C 233.71375,64.42598 186.43534,17.149635 128.11523,17.150391 Z M 83.216797,82.185547 c -4.259388,0.176126 -8.378864,1.92296 -11.089844,5.599609 -8.417684,9.881613 1.463149,24.111184 13.990235,25.474614 -6.536206,23.66456 11.770638,49.05981 35.148432,57.16992 23.73159,6.37474 49.18126,-2.32485 69.94141,-12.90821 -6.99662,-19.98663 -16.14144,-40.57756 -33.97461,-54.19531 -10.56419,-8.249422 -24.70352,-11.606023 -38.32226,-9.548826 -0.73592,-9.686022 -8.17021,4.271933 -7.6543,-7.81836 -4.7922,2.709581 -8.10799,18.002276 -11.626954,6.125 -2.109777,-5.814274 -8.302682,-9.488254 -14.582031,-9.878906 -0.610496,-0.0378 -1.221578,-0.04561 -1.830078,-0.01953 z M 208.74219,152.20703 c 0.38558,-0.0146 0.72798,-0.0132 1.0039,0 1.41532,4.05543 -5.02053,5.59283 -7.65234,3.17578 -0.8773,-2.24167 3.94935,-3.07374 6.64844,-3.17578 z m -0.89453,0.81641 c -1.7688,0.0668 -4.93233,0.61107 -4.35743,2.08008 1.72463,1.58388 5.94309,0.57742 5.01563,-2.08008 -0.18081,-0.009 -0.40552,-0.01 -0.6582,0 z"
         style="color:#000000;clip-rule:nonzero;display:inline;overflow:visible;visibility:visible;opacity:1;isolation:auto;mix-blend-mode:normal;color-interpolation:sRGB;color-interpolation-filters:linearRGB;solid-color:#000000;solid-opacity:1;fill:url(#linearGradient1055);fill-opacity:1;fill-rule:nonzero;stroke:none;stroke-width:3.40526104;stroke-linecap:butt;stroke-linejoin:round;stroke-miterlimit:4;stroke-dasharray:13.62104338, 6.81052169;stroke-dashoffset:0;stroke-opacity:1;color-rendering:auto;image-rendering:auto;shape-rendering:auto;text-rendering:auto;enable-background:accumulate"
         inkscape:connector-curvature="0" />
    </g>
  </g>
</svg>
