<?xml version="1.0" encoding="UTF-8" standalone="no"?>
<!-- Created with Inkscape (http://www.inkscape.org/) -->

<svg
   xmlns:dc="http://purl.org/dc/elements/1.1/"
   xmlns:cc="http://creativecommons.org/ns#"
   xmlns:rdf="http://www.w3.org/1999/02/22-rdf-syntax-ns#"
   xmlns:svg="http://www.w3.org/2000/svg"
   xmlns="http://www.w3.org/2000/svg"
   xmlns:xlink="http://www.w3.org/1999/xlink"
   xmlns:sodipodi="http://sodipodi.sourceforge.net/DTD/sodipodi-0.dtd"
   xmlns:inkscape="http://www.inkscape.org/namespaces/inkscape"
   width="256"
   height="256"
   viewBox="0 0 67.733332 67.733335"
   version="1.1"
   id="svg1737"
   inkscape:version="0.92.3 (2405546, 2018-03-11)"
   sodipodi:docname="lliurex-mirror.svg">
  <defs
     id="defs1731">
    <linearGradient
       id="linearGradient1299"
       inkscape:collect="always">
      <stop
         id="stop1295"
         offset="0"
         style="stop-color:#42555f;stop-opacity:1" />
      <stop
         id="stop1297"
         offset="1"
         style="stop-color:#6e8b9a;stop-opacity:1" />
    </linearGradient>
    <linearGradient
       id="linearGradient1293"
       inkscape:collect="always">
      <stop
         id="stop1289"
         offset="0"
         style="stop-color:#495f6a;stop-opacity:1" />
      <stop
         id="stop1291"
         offset="1"
         style="stop-color:#93a9b4;stop-opacity:1" />
    </linearGradient>
    <linearGradient
       id="linearGradient1281"
       inkscape:collect="always">
      <stop
         id="stop1277"
         offset="0"
         style="stop-color:#455a64;stop-opacity:1" />
      <stop
         id="stop1279"
         offset="1"
         style="stop-color:#000000;stop-opacity:1" />
    </linearGradient>
    <linearGradient
       inkscape:collect="always"
       id="linearGradient2768">
      <stop
         style="stop-color:#455a64;stop-opacity:1"
         offset="0"
         id="stop2764" />
      <stop
         style="stop-color:#455a64;stop-opacity:1"
         offset="1"
         id="stop2766" />
    </linearGradient>
    <linearGradient
       gradientTransform="matrix(0.74931131,0,0,0.74931131,15.982696,954.64341)"
       y2="68.789101"
       x2="203.6655"
       y1="126.3662"
       x1="203.6655"
       gradientUnits="userSpaceOnUse"
       id="XMLID_1543_-2">
      <stop
         id="stop37853"
         style="stop-color:#000000"
         offset="0" />
      <stop
         id="stop37855"
         style="stop-color:#000000;stop-opacity:0.5882"
         offset="1" />
    </linearGradient>
    <linearGradient
       gradientTransform="matrix(0.74931131,0,0,0.74931131,15.982696,954.64341)"
       y2="101.376"
       x2="187.21001"
       y1="232.748"
       x1="187.21001"
       gradientUnits="userSpaceOnUse"
       id="XMLID_1544_-8">
      <stop
         id="stop37859"
         style="stop-color:#000000"
         offset="0" />
      <stop
         id="stop37861"
         style="stop-color:#000000;stop-opacity:0.5882"
         offset="1" />
    </linearGradient>
    <linearGradient
       inkscape:collect="always"
       xlink:href="#linearGradient1281"
       id="linearGradient2770"
       x1="56.304081"
       y1="290.90103"
       x2="45.108177"
       y2="239.89174"
       gradientUnits="userSpaceOnUse" />
    <linearGradient
       inkscape:collect="always"
       xlink:href="#linearGradient1293"
       id="linearGradient851"
       gradientUnits="userSpaceOnUse"
       x1="58.94318"
       y1="290.90103"
       x2="10.261175"
       y2="234.65799" />
    <linearGradient
       inkscape:collect="always"
       xlink:href="#linearGradient1299"
       id="linearGradient853"
       gradientUnits="userSpaceOnUse"
       x1="44.352894"
       y1="276.4126"
       x2="9.8382931"
       y2="247.37576" />
    <linearGradient
       inkscape:collect="always"
       xlink:href="#linearGradient2768"
       id="linearGradient855"
       gradientUnits="userSpaceOnUse"
       x1="58.019348"
       y1="282.06995"
       x2="8.9769335"
       y2="282.06995" />
    <filter
       inkscape:collect="always"
       style="color-interpolation-filters:sRGB"
       id="filter854"
       x="-0.012732724"
       width="1.0254654"
       y="-0.011347018"
       height="1.022694">
      <feGaussianBlur
         inkscape:collect="always"
         stdDeviation="0.26591288"
         id="feGaussianBlur856" />
    </filter>
  </defs>
  <sodipodi:namedview
     id="base"
     pagecolor="#ffffff"
     bordercolor="#666666"
     borderopacity="1.0"
     inkscape:pageopacity="0.0"
     inkscape:pageshadow="2"
     inkscape:zoom="2.8"
     inkscape:cx="136.07987"
     inkscape:cy="140.6257"
     inkscape:document-units="mm"
     inkscape:current-layer="layer1"
     showgrid="false"
     units="px"
     inkscape:window-width="1920"
     inkscape:window-height="1025"
     inkscape:window-x="1920"
     inkscape:window-y="0"
     inkscape:window-maximized="1"
     inkscape:object-paths="true"
     inkscape:snap-intersection-paths="true"
     inkscape:snap-smooth-nodes="true"
     inkscape:snap-midpoints="true"
     inkscape:snap-object-midpoints="true"
     inkscape:snap-center="true"
     inkscape:snap-text-baseline="true" />
  <metadata
     id="metadata1734">
    <rdf:RDF>
      <cc:Work
         rdf:about="">
        <dc:format>image/svg+xml</dc:format>
        <dc:type
           rdf:resource="http://purl.org/dc/dcmitype/StillImage" />
        <dc:title />
      </cc:Work>
    </rdf:RDF>
  </metadata>
  <g
     inkscape:label="Capa 1"
     inkscape:groupmode="layer"
     id="layer1"
     transform="translate(0,-229.26665)">
    <g
       transform="matrix(1.0467099,0,0,1.0467099,-1.5980938,-10.960851)"
       style="fill:#000000;fill-opacity:1;stroke-width:0.38214982;stroke-miterlimit:4;stroke-dasharray:none;stroke:none;stroke-opacity:1;filter:url(#filter854)"
       id="g871">
      <path
         inkscape:connector-curvature="0"
         style="fill:#000000;fill-opacity:1;stroke:none;stroke-width:0.38214982;stroke-miterlimit:4;stroke-dasharray:none;stroke-opacity:1"
         d="m 10.261175,234.65799 v 7.40041 c 4.238695,-1.04508 9.298105,1.86613 10.78075,3.80307 0.67893,-1.28471 0.04643,-3.55108 1.511864,-4.23166 0.306302,-0.14172 0.408017,1.19065 0.366336,1.56865 -0.04122,0.37743 -0.180381,1.26444 -0.10176,1.38007 0,0 1.049154,-1.00355 1.404288,-0.92004 0.355102,0.0835 0.57904,0.29497 0.610561,0.66003 0.02638,0.29861 0.157898,1.28884 0.345984,1.7801 3.109891,-0.38494 6.672086,-0.0695 10.440581,1.76009 1.473896,0.74011 2.976623,1.72208 4.457089,3.00016 4.441387,3.83431 8.794933,10.37669 12.353669,21.34115 -15.770176,8.99597 -26.204018,11.18701 -42.169362,7.99273 v 10.70829 H 58.943181 V 267.9198 c -0.174715,1.25034 -1.194484,2.0425 -2.055553,2.38012 -1.079263,0.42303 -3.533161,0.32631 -4.212866,-1.26006 -0.679693,-1.58637 1.531786,-2.68254 2.340481,-3.00017 0.656656,-0.25758 2.370713,-0.93493 3.297025,-0.24001 0.213777,0.16036 0.383348,0.39185 0.488449,0.72004 0.06908,0.21588 0.116022,0.42174 0.142464,0.62004 v -32.48177 z"
         id="path865"
         sodipodi:nodetypes="ccccccscccsccccccscccccc" />
      <path
         style="fill:#000000;fill-opacity:1;stroke-width:0.38214982;stroke-miterlimit:4;stroke-dasharray:none;stroke:none;stroke-opacity:1"
         d="m 38.558057,252.55101 c -3.593389,-2.89467 -8.367609,-4.02887 -12.943042,-3.23807 -0.291218,-3.44825 -2.733026,1.55506 -2.613609,-2.75519 -1.601153,0.98583 -2.647381,6.4499 -3.885356,2.23268 -1.309001,-3.66726 -6.936807,-4.86694 -9.2777572,-1.41467 -2.7894061,3.55673 0.6000432,8.58371 4.8233382,9.01641 -2.094193,8.45999 4.183328,17.43205 12.089716,20.22275 8.017732,2.17087 16.547742,-1.03653 23.489041,-4.89566 -2.445061,-7.09206 -5.617786,-14.39151 -11.682331,-19.16825 z"
         id="path867"
         inkscape:connector-curvature="0"
         sodipodi:nodetypes="ccccccccc" />
      <path
         style="fill:#000000;fill-opacity:1;stroke-width:0.38214982;stroke-miterlimit:4;stroke-dasharray:none;stroke:none;stroke-opacity:1"
         d="m 57.264795,267.36059 c -0.935633,-0.0354 -3.661168,0.32316 -3.22202,1.4665 1.128517,1.06966 3.84444,0.34426 3.22202,-1.4665 z"
         id="path869"
         inkscape:connector-curvature="0"
         inkscape:transform-center-x="-74.669068"
         inkscape:transform-center-y="21.367565"
         sodipodi:nodetypes="ccc" />
    </g>
    <g
       id="g2762"
       style="fill:url(#linearGradient2770);fill-opacity:1"
       transform="matrix(1.0467099,0,0,1.0467099,-1.5980938,-10.960851)">
      <path
         sodipodi:nodetypes="ccccccscccsccccccscccccc"
         id="rect3012-7-6-7-2"
         d="m 10.261175,234.65799 v 7.40041 c 4.238695,-1.04508 9.298105,1.86613 10.78075,3.80307 0.67893,-1.28471 0.04643,-3.55108 1.511864,-4.23166 0.306302,-0.14172 0.408017,1.19065 0.366336,1.56865 -0.04122,0.37743 -0.180381,1.26444 -0.10176,1.38007 0,0 1.049154,-1.00355 1.404288,-0.92004 0.355102,0.0835 0.57904,0.29497 0.610561,0.66003 0.02638,0.29861 0.157898,1.28884 0.345984,1.7801 3.109891,-0.38494 6.672086,-0.0695 10.440581,1.76009 1.473896,0.74011 2.976623,1.72208 4.457089,3.00016 4.441387,3.83431 8.794933,10.37669 12.353669,21.34115 -15.770176,8.99597 -26.204018,11.18701 -42.169362,7.99273 v 10.70829 H 58.943181 V 267.9198 c -0.174715,1.25034 -1.194484,2.0425 -2.055553,2.38012 -1.079263,0.42303 -3.533161,0.32631 -4.212866,-1.26006 -0.679693,-1.58637 1.531786,-2.68254 2.340481,-3.00017 0.656656,-0.25758 2.370713,-0.93493 3.297025,-0.24001 0.213777,0.16036 0.383348,0.39185 0.488449,0.72004 0.06908,0.21588 0.116022,0.42174 0.142464,0.62004 v -32.48177 z"
         style="fill:url(#linearGradient851);fill-opacity:1;stroke:none;stroke-width:0.64562505"
         inkscape:connector-curvature="0" />
      <path
         sodipodi:nodetypes="ccccccccc"
         inkscape:connector-curvature="0"
         id="path628-5-1-2-84-5-5"
         d="m 38.558057,252.55101 c -3.593389,-2.89467 -8.367609,-4.02887 -12.943042,-3.23807 -0.291218,-3.44825 -2.733026,1.55506 -2.613609,-2.75519 -1.601153,0.98583 -2.647381,6.4499 -3.885356,2.23268 -1.309001,-3.66726 -6.936807,-4.86694 -9.2777572,-1.41467 -2.7894061,3.55673 0.6000432,8.58371 4.8233382,9.01641 -2.094193,8.45999 4.183328,17.43205 12.089716,20.22275 8.017732,2.17087 16.547742,-1.03653 23.489041,-4.89566 -2.445061,-7.09206 -5.617786,-14.39151 -11.682331,-19.16825 z"
         style="fill:url(#linearGradient853);fill-opacity:1;stroke-width:0.64562505" />
      <path
         sodipodi:nodetypes="ccc"
         inkscape:transform-center-y="21.367565"
         inkscape:transform-center-x="-74.669068"
         inkscape:connector-curvature="0"
         id="path628-5-8-5-7-7-3-7"
         d="m 57.264795,267.36059 c -0.935633,-0.0354 -3.661168,0.32316 -3.22202,1.4665 1.128517,1.06966 3.84444,0.34426 3.22202,-1.4665 z"
         style="fill:url(#linearGradient855);fill-opacity:1;stroke-width:0.64562505" />
    </g>
    <path
       style="opacity:0.12600002;fill:#000000;stroke:none;stroke-width:0.26458332px;stroke-linecap:butt;stroke-linejoin:miter;stroke-opacity:1"
       d="m 53.281468,273.9536 6.816849,9.62823 v 9.94632 H 27.344306 l -6.223083,-9.77165 c 14.952374,0.10235 24.958946,-5.78232 32.160245,-9.8029 z"
       id="path1273"
       inkscape:connector-curvature="0"
       sodipodi:nodetypes="cccccc" />
    <path
       style="fill:#000000;stroke:none;stroke-width:0.26458332px;stroke-linecap:butt;stroke-linejoin:miter;stroke-opacity:1;opacity:0.12"
       d="m 53.878333,271.1903 c 1.773328,2.33589 4.032912,4.77224 6.219984,7.43059 v -9.14743 c -0.238777,1.796 -2.968172,4.05357 -6.219984,1.71684 z"
       id="path1275"
       inkscape:connector-curvature="0"
       sodipodi:nodetypes="cccc" />
  </g>
</svg>
